<?xml version="1.0" encoding="UTF-8" standalone="no"?>
<!-- Created with Inkscape (http://www.inkscape.org/) -->

<svg
   id="svg2"
   version="1.1"
   inkscape:version="1.2.1 (9c6d41e410, 2022-07-14)"
   xml:space="preserve"
   width="190.12422"
   height="190.12422"
   viewBox="0 0 190.12422 190.12421"
   sodipodi:docname="appiconfg.svg"
   xmlns:inkscape="http://www.inkscape.org/namespaces/inkscape"
   xmlns:sodipodi="http://sodipodi.sourceforge.net/DTD/sodipodi-0.dtd"
   xmlns="http://www.w3.org/2000/svg"
   xmlns:svg="http://www.w3.org/2000/svg"
   xmlns:rdf="http://www.w3.org/1999/02/22-rdf-syntax-ns#"
   xmlns:cc="http://creativecommons.org/ns#"
   xmlns:dc="http://purl.org/dc/elements/1.1/"><metadata
     id="metadata8"><rdf:RDF><cc:Work
         rdf:about=""><dc:format>image/svg+xml</dc:format><dc:type
           rdf:resource="http://purl.org/dc/dcmitype/StillImage" /><dc:title /></cc:Work></rdf:RDF></metadata><defs
     id="defs6"><clipPath
       clipPathUnits="userSpaceOnUse"
       id="clipPath16"><path
         d="m 0,841.89 595.276,0 L 595.276,0 0,0 0,841.89 Z"
         id="path18"
         inkscape:connector-curvature="0" /></clipPath></defs><sodipodi:namedview
     pagecolor="#ffffff"
     bordercolor="#666666"
     borderopacity="1"
     objecttolerance="10"
     gridtolerance="10"
     guidetolerance="10"
     inkscape:pageopacity="0"
     inkscape:pageshadow="2"
     inkscape:window-width="1920"
     inkscape:window-height="1009"
     id="namedview4"
     showgrid="false"
     inkscape:zoom="2.8284271"
     inkscape:cx="106.24279"
     inkscape:cy="117.73328"
     inkscape:window-x="1912"
     inkscape:window-y="-8"
     inkscape:window-maximized="1"
     inkscape:current-layer="g10"
     inkscape:showpageshadow="0"
     inkscape:pagecheckerboard="0"
     inkscape:deskcolor="#d1d1d1" /><g
     id="g10"
     inkscape:groupmode="layer"
     inkscape:label="agh_znk_wbr_cmyk"
     transform="matrix(1.25,0,0,-1.25,0,190.12419)"><g
       id="g12"
       transform="matrix(0.58201526,0,0,0.58201526,-96.878975,-171.35396)"><g
         id="g14"
         clip-path="url(#clipPath16)"><path
           d="m 275.768,371.814 h -4.246 l 2.094,6.35 z m 2.548,-7.52 h 5.293 c 0,0 -5.857,16.469 -5.859,16.473 -0.658,1.852 -2.076,2.137 -2.531,2.137 h -5.115 c 0.785,-0.64 1.057,-1.059 1.057,-1.702 0,-0.39 -0.087,-0.689 -0.514,-1.952 l -5.064,-14.957 h 3.459 l 1.53,4.64 h 6.173 z"
           style="fill:#231f20;fill-opacity:1;fill-rule:nonzero;stroke:none"
           id="path20"
           inkscape:connector-curvature="0" /><path
           d="m 299.773,366.931 v 5.936 c 0,1.136 -0.241,1.717 -1.047,2.436 l 3.822,-10e-4 c 1.181,0 2.193,-0.957 2.193,-2.165 v -8.425 c -1.867,-0.549 -3.761,-0.851 -5.489,-0.851 -6.616,0 -10.81,3.859 -10.81,9.568 0,5.573 4.203,9.916 10.901,9.916 1.524,0 2.971,-0.267 4.284,-0.742 v -3.725 c -1.176,0.775 -2.664,1.239 -4.284,1.239 -3.212,0 -5.741,-2.214 -5.741,-6.304 0,-4.336 1.916,-6.993 4.991,-6.993 0.385,0 0.768,0.028 1.18,0.111"
           style="fill:#231f20;fill-opacity:1;fill-rule:nonzero;stroke:none"
           id="path22"
           inkscape:connector-curvature="0" /><path
           d="m 317.993,380.5 c 0,1.328 -1.048,2.404 -2.34,2.404 h -3.704 c 0.807,-0.717 1.048,-1.3 1.048,-2.434 v -16.177 h 4.996 v 7.825 h 5.683 v -7.825 h 4.982 v 18.557 h -4.982 v -7.576 h -5.683 z"
           style="fill:#231f20;fill-opacity:1;fill-rule:nonzero;stroke:none"
           id="path24"
           inkscape:connector-curvature="0" /><path
           d="m 310.562,395.312 c 4.136,2.843 7.754,7.238 7.755,16.543 v 55.834 h 4.135 v -55.834 c 0,-10.339 -5.169,-14.475 -11.89,-16.543"
           style="fill:#b01028;fill-opacity:1;fill-rule:nonzero;stroke:none"
           id="path26"
           inkscape:connector-curvature="0" /><path
           d="m 313.925,395.312 c 3.878,1.809 10.597,5.169 10.597,16.543 v 55.834 h 4.136 v -55.834 c 0,-13.959 -10.855,-16.026 -14.733,-16.543"
           style="fill:#b01028;fill-opacity:1;fill-rule:nonzero;stroke:none"
           id="path28"
           inkscape:connector-curvature="0" /><path
           d="m 307.977,395.312 c 3.086,3.103 4.135,9.305 4.135,17.578 v 54.799 h 4.137 v -55.834 c 0,-9.278 -3.102,-13.959 -8.272,-16.543"
           style="fill:#b01028;fill-opacity:1;fill-rule:nonzero;stroke:none"
           id="path30"
           inkscape:connector-curvature="0" /><path
           d="m 287.815,486.301 c 4.137,-2.843 7.755,-7.238 7.755,-16.543 v -64.106 h 4.136 v 64.106 c 0,10.339 -5.17,14.475 -11.891,16.543"
           style="fill:#231f20;fill-opacity:1;fill-rule:nonzero;stroke:none"
           id="path32"
           inkscape:connector-curvature="0" /><path
           d="m 291.178,486.301 c 3.877,-1.809 10.598,-5.17 10.598,-16.543 v -64.106 h 4.135 v 64.106 c 0,13.958 -10.856,16.026 -14.733,16.543"
           style="fill:#231f20;fill-opacity:1;fill-rule:nonzero;stroke:none"
           id="path34"
           inkscape:connector-curvature="0" /><path
           d="m 285.23,486.301 c 3.086,-3.102 4.136,-9.306 4.136,-17.577 v -63.073 l 4.136,10e-4 v 64.106 c 0,9.278 -3.102,13.958 -8.272,16.543"
           style="fill:#231f20;fill-opacity:1;fill-rule:nonzero;stroke:none"
           id="path36"
           inkscape:connector-curvature="0" /><path
           d="m 284.714,395.312 c -4.136,2.843 -7.754,7.238 -7.755,16.543 v 55.834 h -4.136 v -55.834 c 0,-10.339 5.17,-14.475 11.891,-16.543"
           style="fill:#006b3b;fill-opacity:1;fill-rule:nonzero;stroke:none"
           id="path38"
           inkscape:connector-curvature="0" /><path
           d="m 281.351,395.312 c -3.877,1.809 -10.598,5.169 -10.598,16.543 v 55.834 h -4.136 v -55.834 c 0,-13.959 10.857,-16.026 14.734,-16.543"
           style="fill:#006b3b;fill-opacity:1;fill-rule:nonzero;stroke:none"
           id="path40"
           inkscape:connector-curvature="0" /><path
           d="m 287.299,395.312 c -3.087,3.103 -4.136,9.305 -4.136,17.578 v 54.799 h -4.136 v -55.834 c 0,-9.278 3.102,-13.959 8.272,-16.543"
           style="fill:#006b3b;fill-opacity:1;fill-rule:nonzero;stroke:none"
           id="path42"
           inkscape:connector-curvature="0" /></g></g></g></svg>
